<?xml version="1.0" encoding="UTF-8"?>
<svg width="298px" height="373px" viewBox="0 0 298 373" version="1.1" xmlns="http://www.w3.org/2000/svg" xmlns:xlink="http://www.w3.org/1999/xlink">
    <title>Group 2</title>
    <defs>
        <polygon id="path-1" points="33.1254488 0 66.2554792 19.045972 33.1277396 38.1056249 0 19.0596528"></polygon>
        <linearGradient x1="22.4101732%" y1="22.6452528%" x2="64.1973017%" y2="64.0774186%" id="linearGradient-3">
            <stop stop-color="#5412AA" offset="0%"></stop>
            <stop stop-color="#BD3BFF" offset="100%"></stop>
        </linearGradient>
        <polygon id="path-4" points="0 0 33.1460663 19.0482522 33.8608062 264.954028 0.71244914 245.905776"></polygon>
        <linearGradient x1="50.7317197%" y1="50.4369217%" x2="39.130883%" y2="43.5082084%" id="linearGradient-6">
            <stop stop-color="#5412AA" offset="0%"></stop>
            <stop stop-color="#BD3BFF" offset="100%"></stop>
        </linearGradient>
        <polygon id="path-7" points="33.1460663 0 33.8608062 245.905776 0.714739973 264.954028 0 19.0482522"></polygon>
        <linearGradient x1="53.523625%" y1="45.4020767%" x2="46.7512357%" y2="54.2389553%" id="linearGradient-9">
            <stop stop-color="#5412AA" offset="0%"></stop>
            <stop stop-color="#BD3BFF" offset="100%"></stop>
        </linearGradient>
        <polygon id="path-10" points="66.28526 0 34.715287 19.5407614 33.8539337 264.954028 32.1403905 19.7733353 0 0 33.3110063 17.6756106"></polygon>
        <linearGradient x1="50%" y1="0%" x2="50%" y2="100%" id="linearGradient-12">
            <stop stop-color="#8D499A" offset="0%"></stop>
            <stop stop-color="#542360" offset="100%"></stop>
        </linearGradient>
        <polygon id="path-13" points="33.1277396 0 66.25777 19.0305165 33.1300304 38.0747027 0 19.0441862"></polygon>
        <linearGradient x1="22.4099284%" y1="22.6913104%" x2="64.195487%" y2="64.0532754%" id="linearGradient-15">
            <stop stop-color="#5412AA" offset="0%"></stop>
            <stop stop-color="#BD3BFF" offset="100%"></stop>
        </linearGradient>
        <polygon id="path-16" points="0 0 33.1460663 19.0327948 33.8608062 198.969484 0.714739973 179.938967"></polygon>
        <linearGradient x1="51.1762978%" y1="50.5276412%" x2="32.5273678%" y2="42.17006%" id="linearGradient-18">
            <stop stop-color="#5412AA" offset="0%"></stop>
            <stop stop-color="#BD3BFF" offset="100%"></stop>
        </linearGradient>
        <polygon id="path-19" points="33.1483571 0 33.8608062 179.938967 0.714739973 198.969484 1.62773492e-14 19.0327948"></polygon>
        <linearGradient x1="55.3495933%" y1="44.7627497%" x2="45.0677662%" y2="54.8295321%" id="linearGradient-21">
            <stop stop-color="#5412AA" offset="0%"></stop>
            <stop stop-color="#BD3BFF" offset="100%"></stop>
        </linearGradient>
        <polygon id="path-22" points="66.2875509 0 34.715287 19.5226261 33.8539337 198.969484 32.1403905 19.7550112 0 0 33.3110063 17.6612671"></polygon>
        <linearGradient x1="50%" y1="0%" x2="50%" y2="100%" id="linearGradient-24">
            <stop stop-color="#8D499A" offset="0%"></stop>
            <stop stop-color="#542360" offset="100%"></stop>
        </linearGradient>
        <polygon id="path-25" points="33.1231579 3.24742321e-14 66.2554792 19.0903179 33.1277396 38.1920617 0 19.104029"></polygon>
        <linearGradient x1="22.4093061%" y1="22.5230499%" x2="64.1963094%" y2="64.1407785%" id="linearGradient-27">
            <stop stop-color="#5412AA" offset="0%"></stop>
            <stop stop-color="#BD3BFF" offset="100%"></stop>
        </linearGradient>
        <polygon id="path-28" points="33.1277396 0 66.25777 19.0880328 33.1300304 38.1920617 0 19.1017438"></polygon>
        <linearGradient x1="22.4118183%" y1="22.5238889%" x2="64.197624%" y2="64.1389862%" id="linearGradient-30">
            <stop stop-color="#5412AA" offset="0%"></stop>
            <stop stop-color="#BD3BFF" offset="100%"></stop>
        </linearGradient>
        <polygon id="path-31" points="0 0 33.1460663 19.0880328 33.8585154 129.909682 0.71244914 110.819364"></polygon>
        <linearGradient x1="52.4588847%" y1="50.7216357%" x2="13.4764571%" y2="39.2799353%" id="linearGradient-33">
            <stop stop-color="#5412AA" offset="0%"></stop>
            <stop stop-color="#BD3BFF" offset="100%"></stop>
        </linearGradient>
        <polygon id="path-34" points="33.1437754 0 33.8608062 110.819364 0.71244914 129.909682 0 19.0880328"></polygon>
        <linearGradient x1="60.3225794%" y1="43.3810762%" x2="40.4824055%" y2="56.1023759%" id="linearGradient-36">
            <stop stop-color="#5412AA" offset="0%"></stop>
            <stop stop-color="#BD3BFF" offset="100%"></stop>
        </linearGradient>
        <polygon id="path-37" points="66.2829692 0 34.7129962 19.5816297 33.8516429 129.909682 32.1403905 19.8147171 0 0 33.3110063 17.714645"></polygon>
        <linearGradient x1="50%" y1="0%" x2="50%" y2="100%" id="linearGradient-39">
            <stop stop-color="#8D499A" offset="0%"></stop>
            <stop stop-color="#542360" offset="100%"></stop>
        </linearGradient>
        <polygon id="path-40" points="33.1277396 -3.24054151e-14 66.25777 19.0475829 33.1300304 38.1088477 -1.0411781e-15 19.0612648"></polygon>
        <linearGradient x1="22.4111472%" y1="22.6415457%" x2="64.1967915%" y2="64.077813%" id="linearGradient-42">
            <stop stop-color="#5412AA" offset="0%"></stop>
            <stop stop-color="#BD3BFF" offset="100%"></stop>
        </linearGradient>
        <polygon id="path-43" points="0 -3.24054151e-14 33.1460663 19.0498632 33.8608062 85.9524171 0.714739973 66.902554"></polygon>
        <linearGradient x1="55.1865425%" y1="51.0043154%" x2="-27.0353677%" y2="35.0721375%" id="linearGradient-45">
            <stop stop-color="#5412AA" offset="0%"></stop>
            <stop stop-color="#BD3BFF" offset="100%"></stop>
        </linearGradient>
        <polygon id="path-46" points="33.1483571 -3.24054151e-14 33.8608062 66.902554 0.714739973 85.9524171 0 19.0498632"></polygon>
        <linearGradient x1="70.3855996%" y1="41.3695965%" x2="31.2054336%" y2="57.9558215%" id="linearGradient-48">
            <stop stop-color="#5412AA" offset="0%"></stop>
            <stop stop-color="#BD3BFF" offset="100%"></stop>
        </linearGradient>
        <polygon id="path-49" points="66.2875509 -3.24054151e-14 34.715287 19.5401338 33.8539337 85.9524171 32.1403905 19.7727273 0 -3.24054151e-14 33.3110063 17.6771055"></polygon>
        <linearGradient x1="50%" y1="0%" x2="50%" y2="100%" id="linearGradient-51">
            <stop stop-color="#8D499A" offset="0%"></stop>
            <stop stop-color="#542360" offset="100%"></stop>
        </linearGradient>
        <polygon id="path-52" points="10.816 0 0 6.181 67.439 67.686 78.255 61.505"></polygon>
        <linearGradient x1="-66.0575361%" y1="64.8316086%" x2="110.330897%" y2="69.2167819%" id="linearGradient-54">
            <stop stop-color="#3023AE" offset="0%"></stop>
            <stop stop-color="#C86DD7" offset="100%"></stop>
        </linearGradient>
        <polygon id="path-55" points="0 67.686 12.794 75.384 93.667 17.449 161.492 79.309 211.489 37.845 211.647 38.007 219.135 45.674 236.599 6.726 193.978 20.101 201.726 27.867 201.992 28.139 161.76 61.505 94.321 0"></polygon>
        <linearGradient x1="9.64083659%" y1="53.5937536%" x2="95.8038833%" y2="48.2171784%" id="linearGradient-57">
            <stop stop-color="#3023AE" offset="0%"></stop>
            <stop stop-color="#BB67D4" offset="75.6702841%"></stop>
            <stop stop-color="#C86DD7" offset="100%"></stop>
        </linearGradient>
        <polygon id="path-58" points="52.817 0 42.317 6.438 0.785 19.942 0 19.155 41.901 6.006"></polygon>
        <linearGradient x1="73.2761966%" y1="50%" x2="50%" y2="36.4273859%" id="linearGradient-60">
            <stop stop-color="#FFFFFF" offset="0%"></stop>
            <stop stop-color="#AE45C8" offset="100%"></stop>
        </linearGradient>
        <polygon id="path-61" points="94.32 0 161.759 61.505 201.43 28.604 201.725 28.9 201.991 29.173 161.759 62.538 94.32 1.033 0.783 68.158 -4.77482637e-15 67.686"></polygon>
        <linearGradient x1="101.999998%" y1="55.1690207%" x2="33.1824706%" y2="44.6584911%" id="linearGradient-63">
            <stop stop-color="#3023AE" offset="0%"></stop>
            <stop stop-color="#C86DD7" offset="100%"></stop>
        </linearGradient>
    </defs>
    <g id="Welcome" stroke="none" stroke-width="1" fill="none" fill-rule="evenodd">
        <g id="2.0_homepage_2-copy" transform="translate(-929.000000, -3626.000000)">
            <g id="Group-2" transform="translate(929.000000, 3626.000000)">
                <g id="Group-74" transform="translate(105.000000, 186.500000) scale(-1, 1) translate(-105.000000, -186.500000) translate(0.000000, 0.000000)">
                    <g id="Group-59" transform="translate(143.000000, 0.000000)">
                        <g id="Group-55" transform="translate(-0.000000, 0.000000)">
                            <g id="Group-48" transform="translate(0.027490, 0.000000)">
                                <mask id="mask-2" fill="white">
                                    <use xlink:href="#path-1"></use>
                                </mask>
                                <g id="Clip-47"></g>
                                <polygon id="Fill-46" fill="url(#linearGradient-3)" mask="url(#mask-2)" points="33.1254488 0 0 19.0596528 33.1277396 38.1056249 66.2554792 19.045972"></polygon>
                            </g>
                            <g id="Group-51" transform="translate(-0.000000, 19.045972)">
                                <mask id="mask-5" fill="white">
                                    <use xlink:href="#path-4"></use>
                                </mask>
                                <g id="Clip-50"></g>
                                <polygon id="Fill-49" fill="url(#linearGradient-6)" mask="url(#mask-5)" points="0.71244914 245.905776 33.8608062 264.954028 33.1460663 19.0482522 0 0"></polygon>
                            </g>
                            <g id="Group-54" transform="translate(33.139194, 19.045972)">
                                <mask id="mask-8" fill="white">
                                    <use xlink:href="#path-7"></use>
                                </mask>
                                <g id="Clip-53"></g>
                                <polygon id="Fill-52" fill="url(#linearGradient-9)" mask="url(#mask-8)" points="0.714739973 264.954028 33.8608062 245.905776 33.1460663 0 0 19.0482522"></polygon>
                            </g>
                        </g>
                        <g id="Group-58" transform="translate(0.000000, 19.045972)">
                            <mask id="mask-11" fill="white">
                                <use xlink:href="#path-10"></use>
                            </mask>
                            <g id="Clip-57"></g>
                            <polygon id="Fill-56" fill="url(#linearGradient-12)" mask="url(#mask-11)" points="66.28526 0 33.3110063 17.6756106 0 0 32.1403905 19.7733353 33.8539337 264.954028 34.715287 19.5407614"></polygon>
                        </g>
                    </g>
                    <g id="Group-45" transform="translate(96.000000, 93.000000)">
                        <g id="Group-41">
                            <g id="Group-34" transform="translate(0.027490, 0.000000)">
                                <mask id="mask-14" fill="white">
                                    <use xlink:href="#path-13"></use>
                                </mask>
                                <g id="Clip-33"></g>
                                <polygon id="Fill-32" fill="url(#linearGradient-15)" mask="url(#mask-14)" points="33.1277396 0 0 19.0441862 33.1300304 38.0747027 66.25777 19.0305165"></polygon>
                            </g>
                            <g id="Group-37" transform="translate(0.000000, 19.030516)">
                                <mask id="mask-17" fill="white">
                                    <use xlink:href="#path-16"></use>
                                </mask>
                                <g id="Clip-36"></g>
                                <polygon id="Fill-35" fill="url(#linearGradient-18)" mask="url(#mask-17)" points="0.714739973 179.938967 33.8608062 198.969484 33.1460663 19.0327948 0 0"></polygon>
                            </g>
                            <g id="Group-40" transform="translate(33.139194, 19.030516)">
                                <mask id="mask-20" fill="white">
                                    <use xlink:href="#path-19"></use>
                                </mask>
                                <g id="Clip-39"></g>
                                <polygon id="Fill-38" fill="url(#linearGradient-21)" mask="url(#mask-20)" points="0.714739973 198.969484 33.8608062 179.938967 33.1483571 0 1.62773492e-14 19.0327948"></polygon>
                            </g>
                        </g>
                        <g id="Group-44" transform="translate(0.000000, 19.030516)">
                            <mask id="mask-23" fill="white">
                                <use xlink:href="#path-22"></use>
                            </mask>
                            <g id="Clip-43"></g>
                            <polygon id="Fill-42" fill="url(#linearGradient-24)" mask="url(#mask-23)" points="66.2875509 0 33.3110063 17.6612671 0 0 32.1403905 19.7550112 33.8539337 198.969484 34.715287 19.5226261"></polygon>
                        </g>
                    </g>
                    <g id="Group-31" transform="translate(47.000000, 191.000000)">
                        <g id="Group-27" transform="translate(0.000000, 0.000000)">
                            <g id="Group-17" transform="translate(0.027490, 0.000000)">
                                <mask id="mask-26" fill="white">
                                    <use xlink:href="#path-25"></use>
                                </mask>
                                <g id="Clip-16"></g>
                                <polygon id="Fill-15" fill="url(#linearGradient-27)" mask="url(#mask-26)" points="33.1231579 3.24742321e-14 0 19.104029 33.1277396 38.1920617 66.2554792 19.0903179"></polygon>
                            </g>
                            <g id="Group-20" transform="translate(0.739939, 110.083539)">
                                <mask id="mask-29" fill="white">
                                    <use xlink:href="#path-28"></use>
                                </mask>
                                <g id="Clip-19"></g>
                                <polygon id="Fill-18" fill="url(#linearGradient-30)" mask="url(#mask-29)" points="33.1277396 0 0 19.1017438 33.1300304 38.1920617 66.25777 19.0880328"></polygon>
                            </g>
                            <g id="Group-23" transform="translate(0.000000, 19.090318)">
                                <mask id="mask-32" fill="white">
                                    <use xlink:href="#path-31"></use>
                                </mask>
                                <g id="Clip-22"></g>
                                <polygon id="Fill-21" fill="url(#linearGradient-33)" mask="url(#mask-32)" points="0.71244914 110.819364 33.8585154 129.909682 33.1460663 19.0880328 0 0"></polygon>
                            </g>
                            <g id="Group-26" transform="translate(33.139194, 19.090318)">
                                <mask id="mask-35" fill="white">
                                    <use xlink:href="#path-34"></use>
                                </mask>
                                <g id="Clip-25"></g>
                                <polygon id="Fill-24" fill="url(#linearGradient-36)" mask="url(#mask-35)" points="0.71244914 129.909682 33.8608062 110.819364 33.1437754 0 0 19.0880328"></polygon>
                            </g>
                        </g>
                        <g id="Group-30" transform="translate(0.000000, 19.090318)">
                            <mask id="mask-38" fill="white">
                                <use xlink:href="#path-37"></use>
                            </mask>
                            <g id="Clip-29"></g>
                            <polygon id="Fill-28" fill="url(#linearGradient-39)" mask="url(#mask-38)" points="66.2829692 0 33.3110063 17.714645 0 0 32.1403905 19.8147171 33.8516429 129.909682 34.7129962 19.5816297"></polygon>
                        </g>
                    </g>
                    <g id="Group-14" transform="translate(0.000000, 268.000000)">
                        <g id="Group-10" transform="translate(0.000000, -0.000000)">
                            <g id="Group-3" transform="translate(0.027490, -0.000000)">
                                <mask id="mask-41" fill="white">
                                    <use xlink:href="#path-40"></use>
                                </mask>
                                <g id="Clip-2"></g>
                                <polygon id="Fill-1" fill="url(#linearGradient-42)" mask="url(#mask-41)" points="33.1277396 -3.24054151e-14 -1.0411781e-15 19.0612648 33.1300304 38.1088477 66.25777 19.0475829"></polygon>
                            </g>
                            <g id="Group-6" transform="translate(0.000000, 19.047583)">
                                <mask id="mask-44" fill="white">
                                    <use xlink:href="#path-43"></use>
                                </mask>
                                <g id="Clip-5"></g>
                                <polygon id="Fill-4" fill="url(#linearGradient-45)" mask="url(#mask-44)" points="0.714739973 66.902554 33.8608062 85.9524171 33.1460663 19.0498632 0 -3.24054151e-14"></polygon>
                            </g>
                            <g id="Group-9" transform="translate(33.139194, 19.047583)">
                                <mask id="mask-47" fill="white">
                                    <use xlink:href="#path-46"></use>
                                </mask>
                                <g id="Clip-8"></g>
                                <polygon id="Fill-7" fill="url(#linearGradient-48)" mask="url(#mask-47)" points="0.714739973 85.9524171 33.8608062 66.902554 33.1483571 -3.24054151e-14 0 19.0498632"></polygon>
                            </g>
                        </g>
                        <g id="Group-13" transform="translate(0.000000, 19.047583)">
                            <mask id="mask-50" fill="white">
                                <use xlink:href="#path-49"></use>
                            </mask>
                            <g id="Clip-12"></g>
                            <polygon id="Fill-11" fill="url(#linearGradient-51)" mask="url(#mask-50)" points="66.2875509 -3.24054151e-14 33.3110063 17.6771055 0 -3.24054151e-14 32.1403905 19.7727273 33.8539337 85.9524171 34.715287 19.5401338"></polygon>
                        </g>
                    </g>
                </g>
                <g id="Group-64" transform="translate(179.905570, 120.899586) scale(1, -1) rotate(-45.000000) translate(-179.905570, -120.899586) translate(56.197970, 78.654586)">
                    <polygon id="Fill-47" fill="#5713AC" points="161.4742 84.4475 172.2902 78.2655 222.2872 36.8015 211.4712 42.9825"></polygon>
                    <polygon id="Fill-48" fill="#5713AC" points="12.7945 80.5647 23.6105 74.3837 104.4835 16.4487 93.6675 22.6297"></polygon>
                    <g id="Group-51" transform="translate(94.321000, 0.000000)">
                        <mask id="mask-53" fill="white">
                            <use xlink:href="#path-52"></use>
                        </mask>
                        <g id="Clip-50"></g>
                        <polygon id="Fill-49" fill="url(#linearGradient-54)" mask="url(#mask-53)" points="10.816 0 0 6.181 67.439 67.686 78.255 61.505"></polygon>
                    </g>
                    <polygon id="Fill-52" fill="#DB94CE" points="204.7941 19.1019 193.9781 25.2819 236.5991 11.9069 247.4151 5.7259"></polygon>
                    <polygon id="Fill-53" fill="#A06195" points="236.5992 11.9073 219.1352 50.8543 229.9512 44.6733 247.4152 5.7263"></polygon>
                    <g id="Group-56" transform="translate(0.000000, 5.181000)">
                        <mask id="mask-56" fill="white">
                            <use xlink:href="#path-55"></use>
                        </mask>
                        <g id="Clip-55"></g>
                        <polygon id="Fill-54" fill="url(#linearGradient-57)" mask="url(#mask-56)" points="0 67.686 12.794 75.384 93.667 17.449 161.492 79.309 211.489 37.845 211.647 38.007 219.135 45.674 236.599 6.726 193.978 20.101 201.726 27.867 201.992 28.139 161.76 61.505 94.321 0"></polygon>
                    </g>
                    <g id="Group-63" transform="translate(0.001000, 5.181000)">
                        <g id="Group-59" transform="translate(193.977000, 0.946000)">
                            <mask id="mask-59" fill="white">
                                <use xlink:href="#path-58"></use>
                            </mask>
                            <g id="Clip-58"></g>
                            <polygon id="Fill-57" fill="url(#linearGradient-60)" mask="url(#mask-59)" points="42.317 6.438 52.817 0 41.901 6.006 0 19.155 0.785 19.942"></polygon>
                        </g>
                        <g id="Group-62">
                            <mask id="mask-62" fill="white">
                                <use xlink:href="#path-61"></use>
                            </mask>
                            <g id="Clip-61"></g>
                            <polygon id="Fill-60" fill="url(#linearGradient-63)" mask="url(#mask-62)" points="94.32 1.033 161.759 62.538 201.991 29.173 201.725 28.9 201.43 28.604 161.759 61.505 94.32 0 -4.77482637e-15 67.686 0.783 68.158"></polygon>
                        </g>
                    </g>
                </g>
            </g>
        </g>
    </g>
</svg>